<svg xmlns="http://www.w3.org/2000/svg" viewBox="0 0 120 120">
<defs>
<path id="spark" d="M0 -6 C0.8 -2.5 2.5 -0.8 6 0 C2.5 0.8 0.8 2.5 0 6 C-0.8 2.5 -2.5 0.8 -6 0 C-2.5 -0.8 -0.8 -2.5 0 -6 Z"></path>
<linearGradient id="disco" x1="0" y1="0" x2="1" y2="1">
<stop offset="0" stop-color="#ffe9a8"></stop><stop offset="0.22" stop-color="#ffb3c9"></stop><stop offset="0.45" stop-color="#c9a8ff"></stop><stop offset="0.68" stop-color="#8fd8ff"></stop><stop offset="0.88" stop-color="#9fe8c4"></stop><stop offset="1" stop-color="#ffe9a8"></stop>
</linearGradient>
<radialGradient id="glare" cx="0.3" cy="0.25" r="0.6">
<stop offset="0" stop-color="#ffffff" stop-opacity="0.85"></stop><stop offset="1" stop-color="#ffffff" stop-opacity="0"></stop>
</radialGradient>
<pattern id="grid" width="10" height="10" patternUnits="userSpaceOnUse">
<path d="M0 0 H10 M0 0 V10" stroke="rgba(20,15,40,0.45)" stroke-width="1.4" fill="none"></path>
</pattern>
</defs>
<rect width="120" height="120" rx="27" fill="#141129"></rect>
<use href="#spark" transform="translate(16 18) scale(0.5)" fill="#ffd97a"></use>
<circle cx="108" cy="108" r="1.4" fill="#8fd8ff" opacity="0.8"></circle>
<circle cx="12" cy="98" r="1.2" fill="#ffb3c9" opacity="0.8"></circle>
<circle cx="106" cy="18" r="1.2" fill="#ffd97a" opacity="0.7"></circle>
<circle cx="60" cy="58" r="44" fill="url(#disco)"></circle>
<rect x="30.7" y="30.7" width="8.6" height="8.6" fill="#ffffff" opacity="0.55"></rect>
<rect x="50.7" y="20.7" width="8.6" height="8.6" fill="#ffffff" opacity="0.45"></rect>
<rect x="20.7" y="60.7" width="8.6" height="8.6" fill="#ffffff" opacity="0.4"></rect>
<rect x="40.7" y="40.7" width="8.6" height="8.6" fill="rgba(20,15,40,0.3)"></rect>
<rect x="50.7" y="40.7" width="8.6" height="8.6" fill="rgba(20,15,40,0.35)"></rect>
<rect x="40.7" y="50.7" width="8.6" height="8.6" fill="rgba(20,15,40,0.25)"></rect>
<rect x="30.7" y="80.7" width="8.6" height="8.6" fill="rgba(20,15,40,0.3)"></rect>
<circle cx="60" cy="58" r="44" fill="url(#grid)"></circle>
<circle cx="60" cy="58" r="44" fill="url(#glare)"></circle>
<path d="M60 14 A44 44 0 0 1 60 102 A26 44 0 0 0 60 14 Z" fill="rgba(10,8,30,0.78)"></path>
<use href="#spark" transform="translate(30 30) scale(0.45)" fill="#ffffff"></use>
</svg>